<?xml version="1.0" encoding="utf-8"?>
<svg xmlns="http://www.w3.org/2000/svg" viewBox="77.335 1.114 290.702 241.939">
  <path d="M 306.255 58.764 C 303.361 55.907 298.667 55.907 295.773 58.764 C 292.879 55.907 288.185 55.907 285.291 58.764 C 282.397 61.621 282.397 66.255 285.291 69.111 L 295.773 79.459 L 306.255 69.111 C 309.15 66.255 309.15 61.621 306.255 58.764 Z" style="stroke-width: 1; transform-origin: 295.773px 68.04px; filter: none; fill: rgb(190, 170, 252);" transform="matrix(0.344043, -0.938954, 0.938954, 0.344043, 0.000001, -0.000009)"/>
  <path d="M 185.909 144.874 C 183.015 142.017 178.321 142.017 175.427 144.874 C 172.533 142.017 167.839 142.017 164.945 144.874 C 162.051 147.731 162.051 152.365 164.945 155.221 L 175.427 165.569 L 185.909 155.221 C 188.804 152.365 188.804 147.731 185.909 144.874 Z" style="stroke-width: 1; transform-box: fill-box; transform-origin: 50% 50%; filter: none; fill: rgb(190, 170, 252);" transform="matrix(-0.997542, -0.070071, 0.070071, -0.997542, 0.000016, 0.000019)"/>
  <path d="M 257.045 101.661 C 253.625 98.289 248.079 98.289 244.66 101.661 C 241.24 98.289 235.694 98.289 232.274 101.661 C 228.855 105.032 228.855 110.5 232.274 113.871 L 244.66 126.082 L 257.045 113.871 C 260.465 110.5 260.465 105.032 257.045 101.661 Z" style="stroke-width: 1; transform-origin: 244.66px 112.607px; filter: none; fill: rgb(190, 170, 252);" transform="matrix(0.942209, -0.335026, 0.335026, 0.942209, 0.000001, 0.000001)"/>
  <g transform="matrix(0.209072, 0, 0, 0.251075, 69.774673, 125.855385)" style="filter: none;">
    <path fill="none" paint-order="fill stroke markers" d="M 152.486 -81.333 C 168.756 -81.724 191.23 -97.404 174.068 -143.96 L 174.611 -146.82 L 175.164 -149.72 L 175.719 -152.57 L 176.262 -155.44 L 176.855 -158.28 L 177.409 -161.15 L 177.973 -163.97 L 178.554 -166.81 L 179.099 -169.63 L 179.679 -172.44 L 180.243 -175.24 L 180.834 -178.01 L 181.43 -180.78 L 182.002 -183.56 L 182.594 -186.31 L 183.187 -189.06 L 183.792 -191.78 L 184.375 -194.5 L 184.998 -197.24 L 185.597 -199.94 L 186.222 -202.6 L 186.813 -205.28 L 187.437 -207.94 L 188.051 -210.62 L 188.683 -213.22 L 189.303 -215.88 L 189.953 -218.49 L 190.581 -221.09 L 191.23 -223.66 L 191.864 -226.24 L 192.507 -228.79 L 193.178 -231.35 L 193.849 -233.9 L 194.502 -236.41 L 195.144 -238.94 L 195.836 -241.41 L 196.497 -243.88 L 197.177 -246.38 L 197.862 -248.81 L 198.544 -251.24 L 199.254 -253.66 L 199.957 -256.07 L 200.649 -258.45 L 201.361 -260.81 L 202.039 -263.17 L 202.792 -265.51 L 203.473 -267.86 L 204.234 -270.18 L 204.956 -272.46 L 205.686 -274.73 L 206.426 -277 L 207.167 -279.25 L 207.938 -281.49 L 208.67 -283.69 L 209.442 -285.89 L 210.21 -288.06 L 210.972 -290.24 L 211.764 -292.36 L 212.526 -294.5 L 213.315 -296.6 L 214.115 -298.69 L 214.897 -300.76 L 215.706 -302.83 L 216.525 -304.86 L 217.326 -306.89 L 218.156 -308.88 L 218.995 -310.86 L 219.836 -312.81 L 220.645 -314.77 L 221.497 -316.69 L 222.356 -318.61 L 223.215 -320.48 L 224.046 -322.36 L 224.934 -324.19 L 225.804 -326.01 L 226.683 -327.85 L 227.575 -329.63 L 228.453 -331.38 L 229.37 -333.14 L 230.261 -334.88 L 231.16 -336.56 L 232.058 -338.26 L 233.007 -339.94 L 233.936 -341.58 L 234.847 -343.2 L 235.793 -344.81 L 236.733 -346.42 L 237.7 -347.99 L 238.66 -349.52 L 239.637 -351.04 L 240.586 -352.56 L 241.583 -354 L 242.563 -355.49 L 243.559 -356.92 L 244.558 -358.35 L 245.567 -359.75 L 246.553 -361.11 L 247.591 -362.43 L 248.619 -363.79 L 249.647 -365.1 L 250.674 -366.38 L 251.731 -367.63 L 252.78 -368.88 L 253.835 -370.11 L 254.913 -371.29 L 255.991 -372.46 L 257.067 -373.62 L 258.143 -374.75 L 259.231 -375.87 L 260.336 -376.93 L 261.423 -377.98 L 262.561 -379.02 L 263.669 -380.05 L 264.804 -381.01 L 265.939 -382 L 267.086 -382.94 L 268.233 -383.86 L 269.39 -384.77 L 270.554 -385.63 L 271.71 -386.48 L 272.897 -387.32 L 274.081 -388.13 L 275.287 -388.9 L 276.484 -389.65 L 277.677 -390.39 L 278.893 -391.1 L 280.121 -391.8 L 281.354 -392.44 L 282.589 -393.1 L 283.845 -393.71 L 285.06 -394.3 L 286.324 -394.88 L 287.591 -395.39 L 288.873 -395.93 L 290.159 -396.44 L 291.444 -396.89 L 292.728 -397.35 L 294.032 -397.76 L 295.356 -398.17 L 296.65 -398.54 L 297.976 -398.88 L 299.307 -399.2 L 300.651 -399.5 L 301.986 -399.81 L 303.34 -400.06 L 304.713 -400.26 L 306.076 -400.5 L 307.429 -400.67 L 308.834 -400.81 L 310.217 -400.96 L 311.618 -401.06 L 313.034 -401.13 L 314.435 -401.19 L 315.858 -401.23 L 317.292 -401.25 L 318.734 -401.21 L 320.165 -401.19 L 321.609 -401.12 L 323.07 -401.02 L 324.523 -400.94 L 326.005 -400.8 L 327.466 -400.63 L 328.97 -400.45 L 330.453 -400.25 L 331.974 -400 L 333.465 -399.75 L 334.978 -399.48 L 336.508 -399.15 L 338.051 -398.83 L 339.584 -398.48 L 341.123 -398.11 L 342.674 -397.7 L 344.227 -397.27 L 345.805 -396.83 L 347.369 -396.37 L 348.978 -395.85 L 350.57 -395.31 L 352.171 -394.77 L 353.761 -394.2 L 355.383 -393.62 L 356.993 -392.98 L 358.631 -392.36 L 360.244 -391.68 L 361.901 -390.99 L 363.532 -390.29 L 365.195 -389.54 L 366.863 -388.77 L 368.544 -387.98 L 370.203 -387.18 L 371.902 -386.37 L 373.581 -385.5 L 375.27 -384.63 L 376.981 -383.71 L 378.711 -382.79 L 380.421 -381.86 L 382.137 -380.87 L 383.877 -379.88 L 385.617 -378.88 L 387.366 -377.81 L 389.104 -376.75 L 390.884 -375.68 L 392.643 -374.57 L 394.429 -373.43 L 396.208 -372.27 L 398.007 -371.1 L 399.805 -369.89 L 401.596 -368.69 L 403.403 -367.44 L 405.212 -366.17 L 407.057 -364.88 L 408.868 -363.56 L 410.715 -362.24 L 412.572 -360.88 L 414.409 -359.52 L 416.267 -358.13 L 418.125 -356.67 L 419.994 -355.25 L 421.879 -353.8 L 423.756 -352.3 L 425.653 -350.8 L 427.552 -349.26 L 429.45 -347.73 L 431.356 -346.15 L 433.273 -344.56 L 435.189 -342.95 L 437.126 -341.31 L 439.053 -339.69 L 441 -338 L 442.947 -336.33 L 444.893 -334.61 L 446.85 -332.88 L 448.815 -331.12 L 450.79 -329.35 L 452.765 -327.55 L 454.75 -325.73 L 456.739 -323.88 C 459.71 -421.936 592.537 -301.624 487.269 -294.15 L 489.348 -292.01 L 491.435 -289.88 L 493.523 -287.69 L 495.622 -285.54 L 497.72 -283.36 L 499.827 -281.14 L 501.937 -278.88 L 504.054 -276.65 L 506.176 -274.37 L 508.303 -272.12 L 510.435 -269.81 L 512.566 -267.49 L 514.71 -265.13 L 516.855 -262.8 L 519.007 -260.44 L 521.16 -258.07 L 523.322 -255.68 L 525.489 -253.28 L 527.655 -250.85 L 529.83 -248.44 L 532.009 -245.97 L 534.191 -243.51 L 536.38 -241.03 L 538.568 -238.53 L 540.766 -236 L 542.964 -233.5 L 545.17 -230.96 L 547.375 -228.41 L 549.586 -225.84 L 551.805 -223.28 L 554.024 -220.66 L 556.25 -218.06 L 558.48 -215.44 L 560.71 -212.84 L 562.943 -210.18 L 565.185 -207.53 L 567.43 -204.84 L 569.677 -202.16 L 571.928 -199.5 L 574.182 -196.79 L 576.437 -194.09 L 578.703 -191.35 L 580.966 -188.63 L 583.234 -185.88 L 585.503 -183.12 L 587.78 -180.34 L 590.057 -177.57 L 592.34 -174.78 L 594.626 -171.97 L 596.911 -169.19 L 599.199 -166.37 L 601.496 -163.54 L 603.791 -160.69 L 606.087 -157.82 L 608.388 -155 L 610.693 -152.13 L 612.999 -149.25 L 615.309 -146.37 L 617.618 -143.5 L 619.933 -140.59 L 622.251 -137.66 L 624.569 -134.75 L 626.89 -131.84 L 629.215 -128.91 L 631.537 -125.98 L 633.867 -123.03 L 636.194 -120.11 L 638.529 -117.14 L 640.863 -114.19 C 642.512 -276.679 853.49 -11.118 676.076 -69.084 L 678.424 -66.061 L 680.79 -63.007 L 683.155 -59.961 L 685.505 -56.906 L 687.868 -53.866 L 690.232 -50.806 L 692.594 -47.752 L 694.958 -44.698 L 697.322 -41.629 L 699.688 -38.57 L 702.049 -35.504 L 704.413 -32.436 L 706.785 -29.37 L 709.147 -26.305 L 711.512 -23.238 L 713.876 -20.168 L 716.25 -17.099 L 718.611 -14.028 L 720.987 -10.961 L 723.348 -7.89 L 725.711 -4.824 L 728.077 -1.76 L 730.45 1.31 L 732.812 4.378 L 735.176 7.444 L 737.542 10.505 L 739.915 13.57 L 742.267 16.628 L 744.628 19.688 L 746.992 22.742 L 749.356 25.796 L 751.717 28.847 L 754.081 31.896 L 756.437 34.939 L 758.797 37.983 L 761.151 41.024 L 763.514 44.059 L 765.867 47.093 L 768.219 50.119 L 770.575 53.144 L 772.93 56.165 L 775.278 59.179 L 777.621 62.188 L 779.972 65.195 L 782.319 68.198 L 784.663 71.192 L 787.001 74.179 L 789.346 77.165 L 791.678 80.146 L 794.021 83.12 L 796.355 86.087 L 798.684 89.044 L 801.019 91.998 L 803.349 94.946 L 805.683 97.888 L 808.006 100.82 L 810.327 103.746 L 812.649 106.663 L 814.972 109.574 L 817.283 112.48 L 819.596 115.373 L 821.905 118.26 L 824.218 121.138 L 826.519 124.009 L 828.819 126.87 L 831.12 129.724 L 833.422 132.566 L 835.713 135.398 L 838.005 138.222 L 840.295 141.039 L 842.576 143.841 L 844.866 146.643 C 774.515 147.577 857.536 252.408 876.479 184.626 L 878.708 187.253 L 880.936 189.863 L 883.155 192.462 L 885.373 195.048 L 887.593 197.623 L 889.798 200.183 L 892.007 202.726 L 894.207 205.26 L 896.415 207.777 L 898.602 210.284 L 900.792 212.774 L 902.978 215.247 L 905.166 217.71 L 907.344 220.156 L 909.511 222.592 L 911.679 225.007 L 913.847 227.41 L 916.004 229.795 L 918.162 232.168 L 920.306 234.525 L 922.454 236.864 L 924.592 239.19 L 926.726 241.496 L 928.85 243.79 L 930.977 246.064 L 933.093 248.325 L 935.207 250.567 L 937.314 252.792 L 939.421 255.005 L 941.524 257.197 L 943.619 259.371 L 945.705 261.53 L 947.787 263.673 L 949.875 265.795 L 951.933 267.9 L 954.01 269.986 L 956.065 272.058 L 958.13 274.11 L 960.176 276.144 L 962.225 278.161 L 964.264 280.156 L 966.293 282.134 L 968.324 284.092 L 970.345 286.037 L 972.355 287.957 L 974.375 289.858 L 976.378 291.742 L 978.377 293.606 L 980.37 295.454 L 982.361 297.278 L 984.351 299.083 L 986.314 300.871 L 988.274 302.639 L 990.241 304.386 L 992.203 306.111 L 994.156 307.812 L 996.102 309.5 L 998.04 311.165 L 999.975 312.812 L 1001.9 314.436 L 1003.81 316.039 L 1005.73 317.624 L 1007.65 319.185 L 1009.53 320.72 L 1011.42 322.245 L 1013.33 323.741 L 1015.19 325.224 L 1017.05 326.675 L 1018.93 328.11 L 1020.81 329.52 L 1022.68 330.914 L 1024.51 332.282 L 1026.35 333.633 L 1028.19 334.948 L 1030.02 336.258 L 1031.81 337.54 L 1033.63 338.795 L 1035.43 340.032 L 1037.25 341.241 L 1039.04 342.438 L 1040.84 343.614 L 1042.6 344.752 L 1044.39 345.883 L 1046.13 346.987 L 1047.88 348.059 L 1049.66 349.123 L 1051.41 350.141 L 1053.15 351.157 L 1054.86 352.149 L 1056.6 353.105 L 1058.3 354.053 L 1060.02 354.975 L 1061.72 355.875 L 1063.41 356.727 L 1065.11 357.585 L 1066.79 358.411 L 1068.46 359.204 L 1070.12 359.994 L 1071.77 360.748 L 1073.44 361.468 L 1075.09 362.181 L 1076.73 362.863 L 1078.37 363.508 L 1080 364.157 L 1081.59 364.761 L 1083.22 365.344 L 1084.82 365.911 L 1086.42 366.458 L 1087.99 366.968 L 1089.59 367.464 L 1091.18 367.917 L 1092.7 368.369 L 1094.3 368.788 L 1095.83 369.188 L 1097.37 369.549 L 1098.89 369.901 L 1100.45 370.225 L 1101.96 370.527 L 1103.46 370.8 L 1104.98 371.037 L 1106.47 371.275 L 1107.95 371.477 L 1109.43 371.655 L 1110.92 371.8 L 1112.4 371.93 L 1113.86 372.044 L 1115.3 372.102 L 1116.76 372.174 L 1118.2 372.187 L 1119.66 372.203 L 1121.05 372.187 L 1122.47 372.145 L 1123.88 372.074 L 1125.31 371.987 L 1126.7 371.871 L 1128.08 371.735 L 1129.47 371.569 L 1130.84 371.375 L 1132.18 371.174 L 1133.56 370.93 L 1134.93 370.67 L 1136.25 370.384 L 1137.58 370.074 L 1138.91 369.737 L 1140.24 369.376 L 1141.57 369.003 L 1142.85 368.6 L 1144.17 368.161 L 1145.45 367.709 L 1146.74 367.219 L 1148.03 366.73 L 1149.3 366.198 L 1150.54 365.644 L 1151.79 365.078 L 1153.04 364.474 L 1154.27 363.854 L 1155.5 363.201 L 1156.73 362.529 L 1157.96 361.841 L 1159.18 361.13 L 1160.38 360.382 L 1161.61 359.618 L 1162.78 358.829 L 1163.95 358.022 L 1165.12 357.175 L 1166.29 356.334 L 1167.43 355.434 L 1168.6 354.535 L 1169.75 353.602 L 1170.9 352.652 L 1172.02 351.682 L 1173.14 350.675 L 1174.27 349.663 L 1175.38 348.61 L 1176.49 347.552 L 1177.59 346.453 L 1178.69 345.35 L 1179.76 344.212 L 1180.84 343.048 L 1181.89 341.864 L 1183 340.669 L 1184.03 339.452 L 1185.08 338.199 L 1186.13 336.925 L 1187.15 335.642 L 1188.17 334.326 L 1189.23 332.992 L 1190.21 331.629 L 1191.23 330.247 L 1192.24 328.851 L 1193.22 327.421 L 1194.21 325.978 L 1195.2 324.516 L 1196.16 323.025 L 1197.14 321.517 L 1198.12 319.993 L 1199.07 318.441 L 1200.03 316.875 L 1200.98 315.277 L 1201.88 313.665 L 1202.83 312.027 L 1203.77 310.375 L 1204.7 308.697 L 1205.61 307.004 L 1206.5 305.283 L 1207.41 303.55 L 1208.28 301.793 L 1209.19 300.02 L 1210.09 298.225 L 1210.92 296.408 L 1211.83 294.573 L 1212.68 292.72 L 1213.54 290.844 L 1214.4 288.953 L 1215.23 287.038 L 1216.11 285.112 L 1216.9 283.161 L 1217.74 281.19 L 1218.57 279.203 L 1219.38 277.197 L 1220.18 275.172 L 1221.03 273.131 L 1221.82 271.073 L 1222.61 268.994 L 1223.42 266.895 L 1224.18 264.781 L 1224.95 262.65 L 1225.73 260.5 L 1226.51 258.332 L 1227.27 256.151 L 1228.04 253.948 L 1228.79 251.732 L 1229.53 249.497 L 1230.3 247.248 L 1231.02 244.98 L 1231.76 242.696 L 1232.48 240.396 L 1233.19 238.081 L 1233.92 235.745 L 1234.62 233.399 L 1235.34 231.037 L 1236.05 228.657 L 1236.76 226.262 L 1237.47 223.854 L 1238.15 221.431 L 1238.79 218.989 L 1239.48 216.535 L 1240.17 214.068 L 1240.86 211.584 L 1241.53 209.085 L 1242.19 206.578 L 1242.85 204.052 L 1243.49 201.511 L 1244.16 198.961 L 1244.84 196.393 L 1245.43 193.815 L 1246.08 191.221 L 1246.72 188.615 L 1247.35 185.999 L 1247.98 183.368 L 1248.63 180.725 L 1249.23 178.069 L 1249.84 175.402 L 1250.44 172.721 L 1251.07 170.029 L 1251.68 167.327 L 1252.3 164.611 L 1252.86 161.885 L 1253.45 159.15 L 1254.07 156.403 L 1254.66 153.643 L 1255.25 150.872 L 1255.81 148.095 L 1256.4 145.304 L 1256.98 142.505 L 1257.54 139.694 L 1258.13 136.875 L 1258.71 134.049 L 1259.24 131.209 L 1259.8 128.36 L 1260.38 125.503 L 1260.91 122.638 L 1261.48 119.764 L 1262.02 116.882 L 1262.56 113.99 L 1263.14 111.091 L 1263.69 108.185 L 1264.2 105.271 L 1264.74 102.347 L 1265.27 99.419 L 1265.81 96.481 L 1266.34 93.538 L 1266.87 90.589 L 1267.43 87.632 L 1267.93 84.667 L 1268.46 81.7 L 1268.99 78.723 L 1269.52 75.742 L 1270.04 72.752 L 1270.55 69.761 L 1271.04 66.763 L 1271.58 63.759 L 1272.07 60.752 L 1272.61 57.736 L 1273.12 54.722 L 1273.62 51.698 L 1274.14 48.672 L 1274.64 45.641 L 1275.13 42.607 L 1275.64 39.572 L 1276.14 36.531 L 1276.64 33.489 L 1277.15 30.44 L 1277.65 27.39 L 1278.13 24.337 L 1278.64 21.282 L 1279.12 18.227 L 1279.62 15.167 L 1280.11 12.105 L 1280.62 9.043 L 1281.12 5.98 L 1281.63 2.914 L 1282.13 -0.154 L 1282.63 -3.224 L 1283.11 -6.29 L 1283.59 -9.36 L 1284.09 -12.426 L 1284.59 -15.496 L 1285.07 -18.567 L 1285.54 -21.636 L 1286.04 -24.705 L 1286.53 -27.774 L 1287.03 -30.841 L 1287.52 -33.905 L 1288.03 -36.97 L 1288.54 -40.033 L 1289.04 -43.099 C 1272.388 -62.945 1290.182 -86.615 1309.691 -80.756" stroke-linecap="round" stroke-linejoin="round" stroke-miterlimit="10" stroke-width="40" style="stroke: rgb(252, 231, 243);" transform="matrix(0, 0.83270699, -1.20090199, 0, 714.24682578, -623.80394705)"/>
  </g>
  <path d="M 259.414 48.765 C 262.371 48.765 265.335 47.666 267.59 45.477 C 265.424 43.369 262.481 42.184 259.414 42.189 C 261.585 40.084 262.804 37.23 262.8 34.25 C 259.605 34.25 256.715 35.508 254.624 37.537 C 254.624 34.668 253.493 31.79 251.238 29.6 C 249.066 31.702 247.847 34.561 247.851 37.537 C 245.684 35.429 242.742 34.247 239.675 34.25 C 239.675 37.346 240.97 40.157 243.062 42.189 C 240.104 42.189 237.141 43.288 234.886 45.477 C 237.052 47.585 239.994 48.768 243.062 48.765 C 240.889 50.867 239.671 53.724 239.675 56.703 C 242.864 56.703 245.759 55.445 247.851 53.415 C 247.851 56.286 248.983 59.163 251.238 61.353 C 253.409 59.25 254.628 56.392 254.624 53.415 C 256.79 55.524 259.732 56.706 262.8 56.703 C 262.8 53.6 261.506 50.795 259.414 48.765 Z" style="stroke-width: 1; fill: rgb(233, 203, 233); filter: none;"/>
  <path d="M 227.923 194.613 C 230.88 194.613 233.844 193.514 236.099 191.325 C 233.933 189.217 230.99 188.032 227.923 188.037 C 230.094 185.932 231.313 183.078 231.309 180.098 C 228.114 180.098 225.224 181.356 223.133 183.385 C 223.133 180.516 222.002 177.638 219.747 175.448 C 217.575 177.55 216.356 180.409 216.36 183.385 C 214.193 181.277 211.251 180.095 208.184 180.098 C 208.184 183.194 209.479 186.005 211.571 188.037 C 208.613 188.037 205.65 189.136 203.395 191.325 C 205.561 193.433 208.503 194.616 211.571 194.613 C 209.398 196.715 208.18 199.572 208.184 202.551 C 211.373 202.551 214.268 201.293 216.36 199.263 C 216.36 202.134 217.492 205.011 219.747 207.201 C 221.918 205.098 223.137 202.24 223.133 199.263 C 225.299 201.372 228.241 202.554 231.309 202.551 C 231.309 199.448 230.015 196.643 227.923 194.613 Z" style="stroke-width: 1; fill: rgb(233, 203, 233); filter: none;"/>
</svg>