<?xml version="1.0" encoding="utf-8"?>
<svg xmlns="http://www.w3.org/2000/svg" viewBox="-4497.538 72.598 9352.817 705.413">
  <path d="M -4863.7 404.07 C -4863.7 404.07 -4881.1 155.46 -4863.6 104.469 C -4827.3 75.769 -4697.4 -26.991 -4626.9 106.75 C -4555.4 242.61 -4466.4 -48.681 -4409.6 117.52 C -4352.7 283.72 -4261.1 -48.361 -4193.1 75.729 C -4125.1 199.79 -4039.5 -76.491 -3975 92.399 C -3905.5 274.74 -3817 -89.081 -3758.2 110.49 C -3753.9 124.79 -3754.7 200.91 -3754.7 200.91 L -3754.7 399.63 L -4863.7 404.07 Z" svg="" style="stroke-width: 1; fill: rgb(254, 213, 249); mix-blend-mode: multiply; filter: none; transform-box: fill-box; transform-origin: 50% 50%;" transform="matrix(0, 1, -1, 0, 0.000073, -0.000057)"/>
  <path d="M -3990.7 611.754 C -3937.5 611.71 -3894.4 569.094 -3894.4 516.542 L -3990.8 516.542 C -4065.1 516.542 -4111.6 595.885 -4074.4 659.361 C -4057.2 688.82 -4025.3 706.968 -3990.8 706.968 L -3894.4 706.968 C -3894.4 654.413 -3937.5 611.798 -3990.7 611.754 Z" style="stroke-width: 1; fill: rgb(254, 213, 249); filter: none; transform-box: fill-box; transform-origin: 50% 50%;" transform="matrix(-0.92094, -0.389703, 0.389703, -0.92094, 0.000049, -0.000058)"/>
  <path d="M -3976.6 288.567 C -3923.3 288.517 -3880.2 245.897 -3880.2 193.337 L -3976.7 193.337 C -4050.9 193.337 -4097.4 272.697 -4060.2 336.167 C -4043 365.627 -4011.1 383.787 -3976.7 383.787 L -3880.2 383.787 C -3880.2 331.217 -3923.3 288.607 -3976.6 288.567 Z" style="stroke-width: 1; fill: rgb(254, 213, 249); filter: none; transform-origin: -3976.72px 288.569px;" transform="matrix(-0.957984, 0.286822, -0.286822, -0.957984, -0.00004, -0.000024)"/>
  <path d="M 4115.1 31.439 C 4115.1 31.439 4097.79 286.851 4115.22 339.231 C 4151.59 368.721 4281.78 474.281 4352.35 336.891 C 4424 197.321 4513.09 496.571 4569.96 325.821 C 4626.92 155.091 4718.69 496.241 4786.83 368.761 C 4854.93 241.311 4940.66 525.131 5005.27 351.631 C 5074.97 164.321 5163.6 538.071 5222.5 333.041 C 5226.76 318.351 5225.89 240.161 5225.89 240.161 L 5225.89 36.009 L 4115.1 31.439 Z" svg="" style="stroke-width: 1; fill: rgb(254, 213, 249); mix-blend-mode: multiply; filter: none; transform-origin: 4666.72px 220.518px;" transform="matrix(0, 1, -1, 0, -0.000321, 0.000319)"/>
  <path d="M 4339.73 604.911 C 4390.07 584.219 4447.91 606.669 4468.95 655.066 L 4377.74 692.633 C 4307.45 721.585 4231.7 666.637 4241.48 593.683 C 4245.97 559.854 4268.86 530.709 4301.52 517.264 L 4392.72 479.697 C 4413.76 528.097 4390.03 584.138 4339.73 604.911 Z" style="stroke-width: 1; fill: rgb(254, 213, 249); filter: none; transform-origin: 5343.48px 604.996px;"/>
  <path d="M 4326.93 272.635 C 4378.93 289.275 4407.39 343.185 4390.56 393.134 L 4296.36 363.085 C 4223.93 339.975 4203.92 250.095 4260.55 201.355 C 4286.76 178.705 4323.71 171.385 4357.27 182.105 L 4451.5 212.165 C 4434.68 262.105 4378.97 289.185 4326.93 272.635 Z" style="stroke-width: 1; fill: rgb(254, 213, 249); filter: none; transform-origin: 5319.16px 272.583px;"/>
</svg>