<?xml version="1.0" encoding="utf-8"?>
<svg xmlns="http://www.w3.org/2000/svg" viewBox="-4016.646 -86.56 9353.277 656.826">
  <path d="M -4381.6 199.061 C -4381.6 199.061 -4399 -49.549 -4381.5 -100.54 C -4345.2 -129.24 -4215.3 -232 -4144.8 -98.259 C -4073.3 37.601 -3984.3 -253.69 -3927.5 -87.489 C -3870.6 78.711 -3779 -253.37 -3711 -129.28 C -3643 -5.219 -3557.4 -281.5 -3492.9 -112.61 C -3423.4 69.731 -3334.9 -294.09 -3276.1 -94.519 C -3271.8 -80.219 -3272.6 -4.099 -3272.6 -4.099 L -3272.6 194.621 L -4381.6 199.061 Z" svg="" style="stroke-width: 1; fill: rgb(254, 213, 249); mix-blend-mode: multiply; filter: none; transform-box: fill-box; transform-origin: 50% 50%;" transform="matrix(0, 1, -1, 0, -0.000126, 0.00018)"/>
  <path d="M -3508.6 390.745 C -3455.4 390.701 -3412.3 348.085 -3412.3 295.533 L -3508.7 295.533 C -3583 295.533 -3629.5 374.876 -3592.3 438.352 C -3575.1 467.811 -3543.2 485.959 -3508.7 485.959 L -3412.3 485.959 C -3412.3 433.404 -3455.4 390.789 -3508.6 390.745 Z" style="stroke-width: 1; fill: rgb(254, 213, 249); filter: none; transform-box: fill-box; transform-origin: 50% 50%;" transform="matrix(-0.92094, -0.389703, 0.389703, -0.92094, 0.000247, 0.000068)"/>
  <path d="M -3494.5 83.558 C -3441.2 83.508 -3398.1 40.888 -3398.1 -11.672 L -3494.6 -11.672 C -3568.8 -11.672 -3615.3 67.688 -3578.1 131.158 C -3560.9 160.618 -3529 178.778 -3494.6 178.778 L -3398.1 178.778 C -3398.1 126.208 -3441.2 83.598 -3494.5 83.558 Z" style="stroke-width: 1; fill: rgb(254, 213, 249); filter: none; transform-origin: -3494.64px 83.56px;" transform="matrix(-0.957984, 0.286822, -0.286822, -0.957984, -0.000245, -0.000089)"/>
  <path d="M 4597.18 -173.57 C 4597.18 -173.57 4579.87 81.842 4597.3 134.222 C 4633.67 163.712 4763.86 269.272 4834.43 131.882 C 4906.08 -7.688 4995.17 291.562 5052.04 120.812 C 5109 -49.918 5200.77 291.232 5268.91 163.752 C 5337.01 36.302 5422.74 320.122 5487.35 146.622 C 5557.05 -40.688 5645.68 333.062 5704.58 128.032 C 5708.84 113.342 5707.97 35.152 5707.97 35.152 L 5707.97 -169 L 4597.18 -173.57 Z" svg="" style="stroke-width: 1; fill: rgb(254, 213, 249); mix-blend-mode: multiply; filter: none; transform-origin: 5148.8px 15.509px;" transform="matrix(0, 1, -1, 0, 0.0003, -0.000378)"/>
  <path d="M 4821.81 384.902 C 4872.15 364.21 4929.99 386.66 4951.03 435.057 L 4859.82 472.624 C 4789.53 501.576 4713.78 446.628 4723.56 373.674 C 4728.05 339.845 4750.94 310.7 4783.6 297.255 L 4874.8 259.688 C 4895.84 308.088 4872.11 364.129 4821.81 384.902 Z" style="stroke-width: 1; fill: rgb(254, 213, 249); filter: none; transform-origin: 5825.56px 384.987px;"/>
  <path d="M 4809.01 67.626 C 4861.01 84.266 4889.47 138.176 4872.64 188.125 L 4778.44 158.076 C 4706.01 134.966 4686 45.086 4742.63 -3.654 C 4768.84 -26.304 4805.79 -33.624 4839.35 -22.904 L 4933.58 7.156 C 4916.76 57.096 4861.05 84.176 4809.01 67.626 Z" style="stroke-width: 1; fill: rgb(254, 213, 249); filter: none; transform-origin: 5801.24px 67.574px;"/>
</svg>